<svg width="22" height="23" viewBox="0 0 22 23" fill="none" xmlns="http://www.w3.org/2000/svg">
<path d="M10.0001 22.8533C10.4201 22.8437 10.8231 22.6858 11.1378 22.4076C11.4526 22.1294 11.6589 21.7489 11.7201 21.3333H8.21345C8.27643 21.7602 8.49233 22.1497 8.82098 22.4293C9.14963 22.7089 9.56866 22.8596 10.0001 22.8533Z" fill="white"/>
<path d="M19.6734 18.5533C19.0306 17.9802 18.4677 17.3232 18.0001 16.6C17.4896 15.6017 17.1836 14.5115 17.1001 13.3933V10.1C17.0974 9.69996 17.0617 9.30084 16.9934 8.90666C16.4687 8.80177 15.9644 8.61266 15.5001 8.34666C15.6771 8.91656 15.767 9.50992 15.7668 10.1067V13.4C15.8485 14.764 16.2237 16.0943 16.8668 17.3C17.327 18.0293 17.8732 18.7008 18.4934 19.3H1.42011C2.04039 18.7008 2.58651 18.0293 3.04678 17.3C3.68986 16.0943 4.06507 14.764 4.14678 13.4V10.1C4.14327 9.32846 4.29199 8.5638 4.58441 7.84981C4.87683 7.13582 5.30722 6.48653 5.85092 5.93911C6.39463 5.39168 7.04098 4.95688 7.75296 4.65961C8.46494 4.36233 9.22857 4.20841 10.0001 4.20666C11.1293 4.20757 12.2331 4.5415 13.1734 5.16666C13.0698 4.78599 13.0116 4.39437 13.0001 4V3.58C12.304 3.23757 11.5562 3.01232 10.7868 2.91333V2.07333C10.7868 1.83729 10.693 1.61091 10.5261 1.44401C10.3592 1.2771 10.1328 1.18333 9.89678 1.18333C9.66074 1.18333 9.43436 1.2771 9.26746 1.44401C9.10055 1.61091 9.00678 1.83729 9.00678 2.07333V2.94666C7.28393 3.1897 5.70716 4.04783 4.56759 5.36262C3.42803 6.67741 2.8026 8.36009 2.80678 10.1V13.3933C2.72328 14.5115 2.4173 15.6017 1.90678 16.6C1.44737 17.3216 0.893577 17.9785 0.260114 18.5533C0.189002 18.6158 0.132008 18.6927 0.0929255 18.7789C0.0538429 18.8651 0.0335671 18.9587 0.0334473 19.0533V19.96C0.0334473 20.1368 0.103685 20.3064 0.228709 20.4314C0.353734 20.5564 0.523303 20.6267 0.700114 20.6267H19.2334C19.4103 20.6267 19.5798 20.5564 19.7049 20.4314C19.8299 20.3064 19.9001 20.1368 19.9001 19.96V19.0533C19.9 18.9587 19.8797 18.8651 19.8406 18.7789C19.8016 18.6927 19.7446 18.6158 19.6734 18.5533Z" fill="white"/>
<path d="M18.0001 7.33333C19.8411 7.33333 21.3334 5.84095 21.3334 4C21.3334 2.15905 19.8411 0.666664 18.0001 0.666664C16.1592 0.666664 14.6668 2.15905 14.6668 4C14.6668 5.84095 16.1592 7.33333 18.0001 7.33333Z" fill="white"/>
</svg>
