<svg width="24" height="24" viewBox="0 0 24 24" fill="none" xmlns="http://www.w3.org/2000/svg">
<path d="M9.39571 3.51688e-08C7.89471 0.000162563 6.41559 0.359895 5.08217 1.04908C3.74876 1.73827 2.59984 2.73686 1.7316 3.96126C0.863359 5.18566 0.301064 6.60023 0.0917852 8.08657C-0.117494 9.5729 0.0323327 11.0877 0.528722 12.5043C1.02511 13.9208 1.85362 15.1978 2.94489 16.2284C4.03616 17.259 5.35844 18.0132 6.80103 18.4278C8.24362 18.8424 9.76455 18.9055 11.2365 18.6116C12.7084 18.3177 14.0886 17.6755 15.2613 16.7387L22.2306 23.7079C22.4275 23.8981 22.6912 24.0034 22.965 24.001C23.2387 23.9986 23.5006 23.8888 23.6942 23.6952C23.8878 23.5016 23.9976 23.2398 24 22.966C24.0023 22.6923 23.8971 22.4285 23.7069 22.2316L16.7377 15.2624C17.8423 13.8799 18.5341 12.2135 18.7334 10.4552C18.9328 8.69683 18.6315 6.91793 17.8644 5.32324C17.0973 3.72855 15.8954 2.38288 14.3972 1.44114C12.899 0.499392 11.1653 -0.000153039 9.39571 3.51688e-08ZM2.08714 9.39672C2.08714 7.45837 2.85715 5.59941 4.22777 4.22879C5.59839 2.85817 7.45735 2.08816 9.39571 2.08816C11.3341 2.08816 13.193 2.85817 14.5636 4.22879C15.9343 5.59941 16.7043 7.45837 16.7043 9.39672C16.7043 11.3351 15.9343 13.194 14.5636 14.5647C13.193 15.9353 11.3341 16.7053 9.39571 16.7053C7.45735 16.7053 5.59839 15.9353 4.22777 14.5647C2.85715 13.194 2.08714 11.3351 2.08714 9.39672Z" fill="white"/>
</svg>
