<svg width="24" height="24" viewBox="0 0 24 24" fill="none" xmlns="http://www.w3.org/2000/svg">
<path d="M6.03751 6.954C5.85049 6.76657 5.74547 6.51265 5.74547 6.24791C5.74547 5.98318 5.85049 5.72925 6.03751 5.54183L11.2875 0.293056C11.4771 0.105319 11.7332 0 12 0C12.2669 0 12.5229 0.105319 12.7125 0.293056L17.9625 5.54183C18.1495 5.72925 18.2545 5.98318 18.2545 6.24791C18.2545 6.51265 18.1495 6.76657 17.9625 6.954C17.8695 7.04846 17.7585 7.12347 17.6362 7.17468C17.5139 7.22588 17.3826 7.25225 17.25 7.25225C17.1174 7.25225 16.9861 7.22588 16.8638 7.17468C16.7415 7.12347 16.6306 7.04846 16.5375 6.954L13 3.41732V15.0021C13 15.2673 12.8947 15.5216 12.7071 15.7091C12.5196 15.8965 12.2652 16.0019 12 16.0019C11.7348 16.0019 11.4804 15.8965 11.2929 15.7091C11.1054 15.5216 11 15.2673 11 15.0021V3.41732L7.46251 6.954C7.36946 7.04846 7.25854 7.12347 7.13622 7.17468C7.0139 7.22588 6.88262 7.25225 6.75001 7.25225C6.6174 7.25225 6.48611 7.22588 6.36379 7.17468C6.24147 7.12347 6.13056 7.04846 6.03751 6.954Z" fill="white"/>
<path d="M23 14.0023C22.7348 14.0023 22.4804 14.1077 22.2929 14.2952C22.1054 14.4827 22 14.737 22 15.0021V22.0005H2V15.0021C2 14.737 1.89464 14.4827 1.70711 14.2952C1.51957 14.1077 1.26522 14.0023 1 14.0023C0.734784 14.0023 0.48043 14.1077 0.292893 14.2952C0.105357 14.4827 0 14.737 0 15.0021V22.0005C0 22.5308 0.210714 23.0394 0.585786 23.4144C0.960859 23.7893 1.46957 24 2 24H22C22.5304 24 23.0391 23.7893 23.4142 23.4144C23.7893 23.0394 24 22.5308 24 22.0005V15.0021C24 14.737 23.8946 14.4827 23.7071 14.2952C23.5196 14.1077 23.2652 14.0023 23 14.0023Z" fill="white"/>
</svg>
