<svg width="24" height="24" viewBox="0 0 24 24" fill="none" xmlns="http://www.w3.org/2000/svg">
<path d="M1.00008 9.92308C0.734845 9.92308 0.48047 9.81851 0.292918 9.63238C0.105366 9.44625 0 9.1938 0 8.93057V0.992506C0 0.729277 0.105366 0.476829 0.292918 0.290698C0.48047 0.104567 0.734845 0 1.00008 0H9.00075C9.26599 0 9.52036 0.104567 9.70792 0.290698C9.89547 0.476829 10.0008 0.729277 10.0008 0.992506V8.93057C10.0008 9.1938 9.89547 9.44625 9.70792 9.63238C9.52036 9.81851 9.26599 9.92308 9.00075 9.92308H1.00008ZM15.0013 9.92308C14.736 9.92308 14.4816 9.81851 14.2941 9.63238C14.1065 9.44625 14.0012 9.1938 14.0012 8.93057V0.992506C14.0012 0.729277 14.1065 0.476829 14.2941 0.290698C14.4816 0.104567 14.736 0 15.0013 0H22.9999C23.2652 0 23.5195 0.104567 23.7071 0.290698C23.8946 0.476829 24 0.729277 24 0.992506V8.93057C24 9.1938 23.8946 9.44625 23.7071 9.63238C23.5195 9.81851 23.2652 9.92308 22.9999 9.92308H15.0013Z" fill="white"/>
<path d="M1.00008 24C0.734845 24 0.48047 23.8955 0.292918 23.7094C0.105366 23.5233 0 23.2709 0 23.0077V15.0692C0 14.8061 0.105366 14.5537 0.292918 14.3676C0.48047 14.1815 0.734845 14.0769 1.00008 14.0769H9.00075C9.26599 14.0769 9.52036 14.1815 9.70792 14.3676C9.89547 14.5537 10.0008 14.8061 10.0008 15.0692V23.0077C10.0008 23.2709 9.89547 23.5233 9.70792 23.7094C9.52036 23.8955 9.26599 24 9.00075 24H1.00008ZM15.0013 24C14.736 24 14.4816 23.8955 14.2941 23.7094C14.1065 23.5233 14.0012 23.2709 14.0012 23.0077V15.0692C14.0012 14.8061 14.1065 14.5537 14.2941 14.3676C14.4816 14.1815 14.736 14.0769 15.0013 14.0769H22.9999C23.2652 14.0769 23.5195 14.1815 23.7071 14.3676C23.8946 14.5537 24 14.8061 24 15.0692V23.0077C24 23.2709 23.8946 23.5233 23.7071 23.7094C23.5195 23.8955 23.2652 24 22.9999 24H15.0013Z" fill="white"/>
</svg>
